<svg width="90" height="90" viewBox="0 0 90 90" fill="none" xmlns="http://www.w3.org/2000/svg">
<g clip-path="url(#clip0_2461_982)" filter="url(#filter0_g_2461_982)">
<path d="M47.0059 34C47.119 38.6321 50.3792 42.7533 55.4258 45.4541C55.0165 45.9312 54.6715 46.4552 54.3984 47.0254C51.4173 53.2521 56.2925 67.6334 67.5 73C68.2281 73.3486 68.9657 73.649 69.708 73.9072C67.8578 75.8427 65.2653 77 62.4785 77H45C39.4772 77 35 72.5228 35 67V44C35 38.4772 39.4772 34 45 34H47.0059Z" fill="#FFD18D"/>
<path d="M50.1911 57.4867C52.1431 56.344 54.6045 56.6412 56.1952 58.2492C64.5231 66.6678 88.3534 91.3936 72.5 83.05C66.1047 79.6842 61.9187 80.2214 59.1793 82.4153C55.3241 85.5029 47.4069 88.0969 44.5713 84.0528L36.1158 71.9936C34.4379 69.6005 35.1615 66.2846 37.6838 64.8081L50.1911 57.4867Z" fill="#FFA5A5"/>
<path d="M52 48C52 42.4772 47.5228 38 42 38H21.5184C14.7966 38 9.98907 44.4991 11.9562 50.9266L20.2197 77.9266C21.5061 82.1297 25.3864 85 29.7819 85H42C47.5228 85 52 80.5228 52 75V48Z" fill="#FFA5A5"/>
<ellipse cx="31.5" cy="51" rx="13.5" ry="7" fill="#FFD18D"/>
<path d="M43.2697 29.3389C44.4124 29.115 45.5878 29.115 46.7306 29.3389L47.8898 29.5654C47.3116 30.8943 47.0001 32.2988 47.0001 33.752C47.0006 38.4848 50.2894 42.7051 55.4259 45.4541C55.0167 45.9312 54.6717 46.4551 54.3986 47.0254C53.3173 49.284 53.2695 52.6153 54.1828 56.2002L46.7306 57.6611C45.5879 57.885 44.4124 57.885 43.2697 57.6611L16.0744 52.332C6.38183 50.4328 6.38183 36.5672 16.0744 34.668L43.2697 29.3389Z" fill="#FFD18D"/>
<path fill-rule="evenodd" clip-rule="evenodd" d="M41.311 3.91628C43.6233 2.71475 46.3766 2.71475 48.6889 3.91628L59.2436 9.40164C60.3793 9.9918 61.2761 10.755 61.9526 11.6233C59.2538 12.4144 57.3027 13.9358 56.6694 16.054C56.191 17.6546 56.5298 19.3831 57.5092 21.0569C55.3181 21.9787 53.3824 23.1458 51.7885 24.5003H34.4448C26.0707 24.4999 23.3257 13.2631 30.7563 9.40164L41.311 3.91628Z" fill="white"/>
<path fill-rule="evenodd" clip-rule="evenodd" d="M43.1434 25.2334C44.0406 25.0791 44.9582 25.0791 45.8553 25.2334L50.243 25.9873C48.1842 28.2522 46.9999 30.9104 46.9999 33.7519C47.0001 38.4849 50.289 42.705 55.4257 45.4541C55.0163 45.9312 54.6714 46.4551 54.3983 47.0254C53.8945 48.0775 53.6666 49.2203 53.6893 50.4189L45.8553 51.7666C44.9582 51.9208 44.0406 51.9209 43.1434 51.7666L11.8456 46.3838C2.98722 44.86 2.98723 32.1399 11.8456 30.6162L43.1434 25.2334Z" fill="white"/>
<path fill-rule="evenodd" clip-rule="evenodd" d="M42.7011 14.6899C44.2006 14.2401 45.7993 14.2401 47.2988 14.6899L56.457 17.437C56.435 18.6266 56.8062 19.8553 57.5088 21.0561C51.1945 23.7125 47.0002 28.406 47 33.7515C47.0001 36.8942 48.4513 39.8103 50.9296 42.2202L47.2988 43.31C45.7993 43.7599 44.2006 43.7599 42.7011 43.31L20.542 36.6626C12.9404 34.3821 12.9404 23.6179 20.542 21.3374L42.7011 14.6899Z" fill="white"/>
<circle cx="27" cy="58" r="2" fill="#FF8888"/>
<path d="M27.8233 13.8721C24.9145 26.7614 41.6356 17.9254 44.6037 30.597" stroke="#FFEFEF" stroke-width="5" stroke-linecap="round"/>
<path d="M46.0029 10.5356C45.0271 16.3485 52.0827 12.7764 51.3428 19.3817" stroke="#FFEFEF" stroke-width="5" stroke-linecap="round"/>
<circle cx="44.5" cy="4.5" r="2" fill="#FFEFEF" stroke="#FFEFEF"/>
<path d="M15.4999 29.5005C15.4998 43.0008 31 36 44.5 49" stroke="#FFEFEF" stroke-width="5" stroke-linecap="round"/>
<path d="M39 57.0269L41.3734 83.6508" stroke="#FF8888" stroke-width="4" stroke-linecap="round"/>
<path d="M51.3578 57.0269L49.2805 83.1518" stroke="#FF8888" stroke-width="4" stroke-linecap="round"/>
<line x1="9.62954" y1="49.0419" x2="24.0419" y2="82.3705" stroke="#FF8888" stroke-width="4" stroke-linecap="round"/>
<line x1="2" y1="-2" x2="32.6609" y2="-2" transform="matrix(0.241112 0.970497 0.946985 -0.321278 20.8571 50.3618)" stroke="#FF8888" stroke-width="4" stroke-linecap="round"/>
<path d="M25 84C25 84 37.0125 85 40.5 85C43.9875 85 56 84 56 84" stroke="#FF8888" stroke-width="4" stroke-linecap="round"/>
</g>
<defs>
<filter id="filter0_g_2461_982" x="-2" y="-2" width="94" height="94" filterUnits="userSpaceOnUse" color-interpolation-filters="sRGB">
<feFlood flood-opacity="0" result="BackgroundImageFix"/>
<feBlend mode="normal" in="SourceGraphic" in2="BackgroundImageFix" result="shape"/>
<feTurbulence type="fractalNoise" baseFrequency="1 1" numOctaves="3" seed="9567" />
<feDisplacementMap in="shape" scale="4" xChannelSelector="R" yChannelSelector="G" result="displacedImage" width="100%" height="100%" />
<feMerge result="effect1_texture_2461_982">
<feMergeNode in="displacedImage"/>
</feMerge>
</filter>
<clipPath id="clip0_2461_982">
<rect width="90" height="90" fill="white"/>
</clipPath>
</defs>
</svg>
