<svg width="90" height="90" viewBox="0 0 90 90" fill="none" xmlns="http://www.w3.org/2000/svg">
<g clip-path="url(#clip0_2463_1174)" filter="url(#filter0_g_2463_1174)">
<path d="M33.7021 44C33.589 47.7703 30.3289 51.1249 25.2822 53.3232C25.6915 53.7116 26.0365 54.1383 26.3096 54.6025C29.2905 59.6709 24.4154 71.376 13.208 75.7441C12.4954 76.0219 11.7741 76.2625 11.0479 76.4697C12.8465 78.0695 15.198 79 17.6943 79H35.708C41.2309 79 45.708 74.5228 45.708 69V54C45.708 48.4772 41.2309 44 35.708 44H33.7021Z" fill="#FFD18D"/>
<path d="M33.4466 57.4867C31.4946 56.344 29.0332 56.6412 27.4425 58.2492C19.1145 66.6678 -4.71571 91.3936 11.1377 83.05C17.5329 79.6842 21.719 80.2214 24.4584 82.4153C28.3136 85.5029 36.2308 88.0969 39.0663 84.0528L47.5218 71.9936C49.1998 69.6005 48.4762 66.2846 45.9538 64.8081L33.4466 57.4867Z" fill="#FFA5A5"/>
<path d="M31.6376 48C31.6376 42.4772 36.1148 38 41.6376 38H62.1192C68.841 38 73.6486 44.4991 71.6814 50.9266L63.4179 77.9266C62.1315 82.1297 58.2513 85 53.8557 85H41.6377C36.1148 85 31.6376 80.5228 31.6376 75V48Z" fill="#FFA5A5"/>
<ellipse cx="13.5" cy="7" rx="13.5" ry="7" transform="matrix(-1 0 0 1 65.6377 44)" fill="#FFD18D"/>
<path d="M40.368 29.3389C39.2252 29.115 38.0498 29.115 36.907 29.3389L35.7479 29.5654C36.3261 30.8944 36.6375 32.2988 36.6375 33.752C36.6372 38.4849 33.3483 42.7051 28.2117 45.4541C28.621 45.9312 28.966 46.4551 29.2391 47.0254C30.3205 49.2839 30.3681 52.6152 29.4549 56.2002L36.907 57.6611C38.0498 57.885 39.2252 57.885 40.368 57.6611L67.5633 52.332C77.2558 50.4328 77.2558 36.5672 67.5633 34.668L40.368 29.3389Z" fill="#FFD18D"/>
<path d="M42.326 3.91699C40.0137 2.71557 37.2613 2.7155 34.949 3.91699L24.3943 9.40137C23.2585 9.99157 22.361 10.7547 21.6844 11.623C24.3835 12.414 26.3351 13.9354 26.9686 16.0537C27.447 17.6544 27.1081 19.3827 26.1287 21.0566C28.3195 21.9783 30.2547 23.1458 31.8484 24.5H49.1922C57.5665 24.5 60.3123 13.2629 52.8816 9.40137L42.326 3.91699Z" fill="white"/>
<path d="M40.4939 25.2324C39.5967 25.0782 38.6791 25.0782 37.782 25.2324L33.3933 25.9873C35.4524 28.2524 36.6374 30.9101 36.6374 33.752C36.6372 38.485 33.3483 42.7051 28.2116 45.4541C28.621 45.9312 28.9659 46.4551 29.239 47.0254C29.7428 48.0776 29.9706 49.2203 29.948 50.4189L37.782 51.7666C38.6791 51.9209 39.5967 51.9209 40.4939 51.7666L71.7927 46.3838C80.6507 44.8598 80.6508 32.1391 71.7927 30.6152L40.4939 25.2324Z" fill="white"/>
<path d="M40.9364 14.6899C39.4369 14.2401 37.8383 14.2401 36.3388 14.6899L27.1806 17.437C27.2026 18.6266 26.8314 19.8553 26.1288 21.0562C32.4431 23.7125 36.6374 28.406 36.6376 33.7515C36.6375 36.8943 35.1863 39.8103 32.7079 42.2202L36.3388 43.3101C37.8383 43.7599 39.4369 43.7599 40.9364 43.3101L63.0956 36.6626C70.6972 34.3821 70.6972 23.6179 63.0956 21.3374L40.9364 14.6899Z" fill="white"/>
<circle cx="2" cy="2" r="2" transform="matrix(-1 0 0 1 58.6377 56)" fill="#FF8888"/>
<path d="M55.8143 13.8721C58.7232 26.7614 42.002 17.9254 39.034 30.597" stroke="#FFEFEF" stroke-width="5" stroke-linecap="round"/>
<path d="M37.6348 10.5356C38.6106 16.3485 31.5549 12.7764 32.2948 19.3817" stroke="#FFEFEF" stroke-width="5" stroke-linecap="round"/>
<circle cx="2.5" cy="2.5" r="2" transform="matrix(-1 0 0 1 41.6377 2)" fill="#FFEFEF" stroke="#FFEFEF"/>
<path d="M68.1378 29.5005C68.1379 43.0008 52.6377 36 39.1377 49" stroke="#FFEFEF" stroke-width="5" stroke-linecap="round"/>
<path d="M44.6377 57.0269L42.2643 83.6508" stroke="#FF8888" stroke-width="4" stroke-linecap="round"/>
<path d="M32.2798 57.0269L34.3571 83.1518" stroke="#FF8888" stroke-width="4" stroke-linecap="round"/>
<line x1="2" y1="-2" x2="38.3113" y2="-2" transform="matrix(-0.396911 0.917857 0.917857 0.396911 76.6376 48)" stroke="#FF8888" stroke-width="4" stroke-linecap="round"/>
<line x1="2" y1="-2" x2="32.6609" y2="-2" transform="matrix(-0.241112 0.970497 -0.946985 -0.321278 62.7805 50.3618)" stroke="#FF8888" stroke-width="4" stroke-linecap="round"/>
<path d="M58.6377 84C58.6377 84 46.6252 85 43.1377 85C39.6502 85 27.6377 84 27.6377 84" stroke="#FF8888" stroke-width="4" stroke-linecap="round"/>
</g>
<defs>
<filter id="filter0_g_2463_1174" x="-2" y="-2" width="94" height="94" filterUnits="userSpaceOnUse" color-interpolation-filters="sRGB">
<feFlood flood-opacity="0" result="BackgroundImageFix"/>
<feBlend mode="normal" in="SourceGraphic" in2="BackgroundImageFix" result="shape"/>
<feTurbulence type="fractalNoise" baseFrequency="1 1" numOctaves="3" seed="9567" />
<feDisplacementMap in="shape" scale="4" xChannelSelector="R" yChannelSelector="G" result="displacedImage" width="100%" height="100%" />
<feMerge result="effect1_texture_2463_1174">
<feMergeNode in="displacedImage"/>
</feMerge>
</filter>
<clipPath id="clip0_2463_1174">
<rect width="90" height="90" fill="white"/>
</clipPath>
</defs>
</svg>
