<svg width="90" height="91" viewBox="0 0 90 91" fill="none" xmlns="http://www.w3.org/2000/svg">
<g clip-path="url(#clip0_2463_1428)" filter="url(#filter0_g_2463_1428)">
<g filter="url(#filter1_g_2463_1428)">
<path d="M70.2969 33C77.0728 33.0003 81.8863 39.5977 79.8193 46.0508L69.8896 77.0508C68.5633 81.1908 64.7145 83.9998 60.3672 84H44.0312C38.5084 84 34.0313 79.5228 34.0312 74V43C34.0312 37.4772 38.5084 33 44.0312 33H70.2969Z" fill="#FFE6A5"/>
<path d="M55.9688 43C55.9688 37.4772 51.4916 33 45.9688 33H19.7036C12.9274 33 8.11319 39.5973 10.1802 46.0505L20.1099 77.0505C21.4361 81.1909 25.2856 84 29.6333 84H45.9687C51.4916 84 55.9688 79.5228 55.9688 74V43Z" fill="#FFE6A5"/>
<ellipse cx="31.5" cy="51" rx="13.5" ry="7" fill="#FFD18D"/>
<ellipse cx="58.5" cy="51" rx="13.5" ry="7" fill="#FFD18D"/>
<path d="M43.2694 29.3391C44.4123 29.1152 45.5877 29.1152 46.7306 29.3391L73.9261 34.668C83.6186 36.5672 83.6186 50.4328 73.9261 52.332L46.7306 57.6609C45.5877 57.8848 44.4123 57.8848 43.2694 57.6609L16.0739 52.332C6.38136 50.4328 6.38136 36.5672 16.0739 34.668L43.2694 29.3391Z" fill="#FFD18D"/>
<path d="M41.3113 3.91669C43.6237 2.71516 46.3763 2.71516 48.6887 3.91669L59.2435 9.40115C66.6747 13.2625 63.9293 24.5 55.5548 24.5H34.4452C26.0707 24.5 23.3253 13.2625 30.7565 9.40115L41.3113 3.91669Z" fill="#6B2900"/>
<path d="M42.7012 14.6896C44.2007 14.2398 45.7993 14.2398 47.2988 14.6896L69.458 21.3374C77.0596 23.6179 77.0596 34.3821 69.458 36.6626L47.2988 43.3104C45.7993 43.7602 44.2007 43.7602 42.7012 43.3104L20.542 36.6626C12.9404 34.3821 12.9404 23.6179 20.542 21.3374L42.7012 14.6896Z" fill="#6B2900"/>
<path d="M43.1441 25.2332C44.0415 25.0789 44.9585 25.0789 45.8559 25.2332L77.1545 30.6157C86.0133 32.1392 86.0133 44.8608 77.1545 46.3843L45.8559 51.7668C44.9585 51.9211 44.0415 51.9211 43.1441 51.7668L11.8455 46.3843C2.98672 44.8608 2.98671 32.1392 11.8455 30.6157L43.1441 25.2332Z" fill="#6B2900"/>
<path d="M27.8234 13.8721C25.5 27 45.5 19.5 50.5 32.9996" stroke="#AB5800" stroke-width="5" stroke-linecap="round"/>
<path d="M58.3464 41.9989C70.5 46.5 83.5 46 82.5 35.5" stroke="#AB5800" stroke-width="5" stroke-linecap="round"/>
<path d="M49 11C52 19 60.5 12.5 64.5 21.5" stroke="#AB5800" stroke-width="5" stroke-linecap="round"/>
<circle cx="44.5" cy="4.5" r="2" fill="#AB5800" stroke="#AB5800"/>
<path d="M15.4999 29.5005C15.4998 43.0008 31 36 44.5 49" stroke="#AB5800" stroke-width="5" stroke-linecap="round"/>
<circle cx="69.5" cy="24.5" r="2" fill="#AB5800" stroke="#AB5800"/>
<circle cx="54.5" cy="37.5" r="2.5" fill="#AB5800"/>
<path d="M57.3386 63.3153C57.2954 57.9707 53.7149 53.9304 49.3413 54.2909C44.9678 54.6514 41.4573 59.2763 41.5006 64.6209C41.5438 69.9654 45.1598 78.4045 49.5334 78.044C53.907 77.6834 57.3818 68.6598 57.3386 63.3153Z" fill="#BC2F2F"/>
<path d="M55.3513 62.1252C60.0845 59.6427 65.3359 60.8944 67.0806 64.921C68.8254 68.9477 66.4028 74.2244 61.6696 76.7069C56.9364 79.1894 47.7894 79.9809 46.0447 75.9543C44.2999 71.9276 50.6181 64.6077 55.3513 62.1252Z" fill="#BC2F2F"/>
<path d="M34.1912 74.703C31.5011 73.6504 28.3964 74.6414 27.2567 76.9165C26.117 79.1915 27.3738 81.8891 30.0639 82.9417C32.754 83.9943 38.0727 83.8696 39.2124 81.5945C40.3522 79.3195 36.8813 75.7556 34.1912 74.703Z" fill="#BC2F2F"/>
<path d="M32.9952 75.4647C33.1806 72.582 35.3929 70.1889 37.9365 70.1197C40.4802 70.0504 42.3919 72.3312 42.2065 75.2139C42.021 78.0967 39.6561 82.8623 37.1125 82.9316C34.5689 83.0008 32.8097 78.3475 32.9952 75.4647Z" fill="#BC2F2F"/>
</g>
</g>
<defs>
<filter id="filter0_g_2463_1428" x="-2" y="-1" width="94" height="94" filterUnits="userSpaceOnUse" color-interpolation-filters="sRGB">
<feFlood flood-opacity="0" result="BackgroundImageFix"/>
<feBlend mode="normal" in="SourceGraphic" in2="BackgroundImageFix" result="shape"/>
<feTurbulence type="fractalNoise" baseFrequency="1 1" numOctaves="3" seed="9567" />
<feDisplacementMap in="shape" scale="4" xChannelSelector="R" yChannelSelector="G" result="displacedImage" width="100%" height="100%" />
<feMerge result="effect1_texture_2463_1428">
<feMergeNode in="displacedImage"/>
</feMerge>
</filter>
<filter id="filter1_g_2463_1428" x="4.20142" y="1" width="81.8525" height="84" filterUnits="userSpaceOnUse" color-interpolation-filters="sRGB">
<feFlood flood-opacity="0" result="BackgroundImageFix"/>
<feBlend mode="normal" in="SourceGraphic" in2="BackgroundImageFix" result="shape"/>
<feTurbulence type="fractalNoise" baseFrequency="2 2" numOctaves="3" seed="834" />
<feDisplacementMap in="shape" scale="2" xChannelSelector="R" yChannelSelector="G" result="displacedImage" width="100%" height="100%" />
<feMerge result="effect1_texture_2463_1428">
<feMergeNode in="displacedImage"/>
</feMerge>
</filter>
<clipPath id="clip0_2463_1428">
<rect width="90" height="90" fill="white" transform="translate(0 1)"/>
</clipPath>
</defs>
</svg>
