<?xml version="1.0" encoding="utf-8"?>
<!-- Svg Vector Icons : http://www.onlinewebfonts.com/icon -->
<!DOCTYPE svg PUBLIC "-//W3C//DTD SVG 1.1//EN" "http://www.w3.org/Graphics/SVG/1.1/DTD/svg11.dtd">
<svg version="1.1" xmlns="http://www.w3.org/2000/svg" xmlns:xlink="http://www.w3.org/1999/xlink" x="0px" y="0px" viewBox="0 0 1000 1000" enable-background="new 0 0 1000 1000" xml:space="preserve">
<metadata> Svg Vector Icons : http://www.onlinewebfonts.com/icon </metadata>
<g><g><path d="M500,10C229.4,10,10,229.4,10,500s219.4,490,490,490c270.7,0,490-219.4,490-490S770.7,10,500,10z M633.6,689.2c-24.1,27-58.9,42.9-104.4,47.7v69.3h-58v-69c-75.9-7.8-122.9-51.9-141-132.3l89.7-23.4c8.3,50.5,35.8,75.8,82.5,75.8c21.8,0,38-5.4,48.3-16.2s15.4-23.9,15.4-39.2c0-15.9-5.1-27.9-15.4-36c-10.3-8.2-33.2-18.5-68.7-31.1c-31.9-11.1-56.8-22-74.8-32.8c-17.9-10.8-32.5-25.9-43.7-45.3c-11.2-19.5-16.8-42.2-16.8-68.1c0-33.9,10-64.5,30-91.6c20-27.1,51.4-43.7,94.4-49.7v-53.5h58v53.5c64.8,7.8,106.8,44.4,125.9,110.1l-79.9,32.8c-15.6-45-39.7-67.5-72.3-67.5c-16.4,0-29.5,5-39.4,15.1c-9.9,10-14.9,22.3-14.9,36.5c0,14.6,4.8,25.8,14.4,33.6c9.5,7.8,30,17.4,61.4,29c34.5,12.6,61.5,24.5,81,35.6c19.6,11.2,35.2,26.7,47,46.4c11.7,19.7,17.5,42.8,17.5,69.1C669.8,628.5,657.7,662.2,633.6,689.2z"/></g><g></g><g></g><g></g><g></g><g></g><g></g><g></g><g></g><g></g><g></g><g></g><g></g><g></g><g></g><g></g></g>
</svg>